# xmcd
#
# Track frame offsets: 
#        150
#        9325
#        31412
#        48913
#        56624
#        71508
#        93636
#        103982
#        130447
#        145731
#        168959
#        184572
#        190352
#        198982
#        209472
#        223121
#        242222
#        247848
#        265254
#        286948
#
# Disc length: 4080 seconds
#
# Revision: 0
# Processed by: cddbd v1.5.2PL0 Copyright (c) Steve Scherf et al.
# Submitted via: ExactAudioCopy v0.99pb4
#
DISCID=2b0fee14
DTITLE=James Brown - James Brown Live
DYEAR=2004
DGENRE=Funk
TTITLE0=Give It Up Or Turn it Loose
TTITLE1=It`s Too Funky In Here
TTITLE2=Doing It To Death
TTITLE3=Try Me
TTITLE4=Get On The Good Foot
TTITLE5=Prisoner Of Love
TTITLE6=Get Up Offa That Thing
TTITLE7=Georgia On My Mind
TTITLE8=I Got The Feelin`
TTITLE9=It`s A Man`s, Man`s, Man`s World
TTITLE10=Super Bad
TTITLE11=Cold Sweat
TTITLE12=I Can`t Stand Myself
TTITLE13=Papa`s Got A Brand New Bag
TTITLE14=I Got You (I Feel Good)
TTITLE15=Sex Machine
TTITLE16=Hot Pants
TTITLE17=Please, Please
TTITLE18=Jam
TTITLE19=Body Heat
EXTD=
EXTT0=
EXTT1=
EXTT2=
EXTT3=
EXTT4=
EXTT5=
EXTT6=
EXTT7=
EXTT8=
EXTT9=
EXTT10=
EXTT11=
EXTT12=
EXTT13=
EXTT14=
EXTT15=
EXTT16=
EXTT17=
EXTT18=
EXTT19=
PLAYORDER=
